<?xml version="1.0" encoding="UTF-8"?>
<!DOCTYPE svg PUBLIC "-//W3C//DTD SVG 1.1//EN" "http://www.w3.org/Graphics/SVG/1.1/DTD/svg11.dtd">
<svg xmlns="http://www.w3.org/2000/svg" version="1.1" width="512px" height="512px" style="shape-rendering:geometricPrecision; text-rendering:geometricPrecision; image-rendering:optimizeQuality; fill-rule:evenodd; clip-rule:evenodd" xmlns:xlink="http://www.w3.org/1999/xlink">
<g><path style="opacity:0.949" fill="#000000" d="M 170.5,-0.5 C 178.167,-0.5 185.833,-0.5 193.5,-0.5C 207.369,2.52156 218.869,9.52156 228,20.5C 237.168,9.50657 248.668,2.50657 262.5,-0.5C 270.167,-0.5 277.833,-0.5 285.5,-0.5C 303.056,3.19395 316.222,12.8606 325,28.5C 341.68,15.8981 360.18,12.3981 380.5,18C 399.104,24.2701 411.271,36.7701 417,55.5C 418.429,76.4602 418.929,97.4602 418.5,118.5C 459.091,128.642 476.591,154.642 471,196.5C 467.385,234.629 457.385,270.962 441,305.5C 430.215,323.619 417.881,340.619 404,356.5C 395.813,368.909 391.813,382.576 392,397.5C 391.667,415.5 391.333,433.5 391,451.5C 388.455,480.458 373.288,498.958 345.5,507C 337.102,508.953 328.769,510.453 320.5,511.5C 268.5,511.5 216.5,511.5 164.5,511.5C 152.28,510.152 140.28,507.318 128.5,503C 108.042,492.953 96.8757,476.453 95,453.5C 93.7687,430.86 93.102,408.193 93,385.5C 91.933,376.966 89.2663,368.966 85,361.5C 76,349.167 67,336.833 58,324.5C 47.0195,304.579 41.0195,283.246 40,260.5C 39.3333,194.167 39.3333,127.833 40,61.5C 45.6839,37.8173 60.5172,23.6506 84.5,19C 100.988,16.2968 116.154,19.4634 130,28.5C 137.351,17.151 147.184,8.65097 159.5,3C 163.333,1.9662 166.999,0.799536 170.5,-0.5 Z M 176.5,18.5 C 197.434,16.9825 211.267,25.9825 218,45.5C 220.705,84.1472 222.705,122.814 224,161.5C 216.3,180.476 202.133,188.643 181.5,186C 167.033,183.528 157.533,175.361 153,161.5C 150.48,124.159 147.98,86.8255 145.5,49.5C 148.882,32.1182 159.215,21.7848 176.5,18.5 Z M 268.5,18.5 C 285.876,17.1038 299.042,23.7705 308,38.5C 308.822,40.7885 309.489,43.1218 310,45.5C 310.5,65.1638 310.667,84.8305 310.5,104.5C 297.875,102.838 285.208,102.004 272.5,102C 260.589,104.371 250.756,110.204 243,119.5C 240.892,95.9954 239.059,72.4954 237.5,49C 241.078,31.922 251.411,21.7554 268.5,18.5 Z M 353.5,35.5 C 371.877,32.7775 386.044,39.1109 396,54.5C 396.667,56.5 397.333,58.5 398,60.5C 398.5,78.8303 398.667,97.1636 398.5,115.5C 375.476,112.914 352.476,110.08 329.5,107C 330.327,88.24 330.827,69.4067 331,50.5C 337.008,43.0918 344.508,38.0918 353.5,35.5 Z M 90.5,37.5 C 104.988,36.3303 116.822,41.3303 126,52.5C 128.789,85.4561 130.456,118.456 131,151.5C 124.597,166.474 113.097,174.14 96.5,174.5C 81.9201,173.966 70.7534,167.632 63,155.5C 61.1095,151.389 60.1095,147.056 60,142.5C 59.3333,115.833 59.3333,89.1667 60,62.5C 65.2607,48.1269 75.4274,39.7936 90.5,37.5 Z M 277.5,120.5 C 323.511,126.168 369.511,132.001 415.5,138C 440.046,143.543 452.38,158.877 452.5,184C 450.108,218.738 442.274,252.238 429,284.5C 418.808,304.898 406.141,323.564 391,340.5C 380.411,354.358 374.244,370.024 372.5,387.5C 285.836,388.5 199.169,388.833 112.5,388.5C 111.914,373.241 107.414,359.241 99,346.5C 89.8434,334.853 81.1768,322.853 73,310.5C 65.5578,296.067 61.2245,280.734 60,264.5C 59.3333,236.833 59.3333,209.167 60,181.5C 65.9101,186.706 72.7435,190.206 80.5,192C 102.336,197.173 121.502,192.339 138,177.5C 149.298,196.157 165.965,205.824 188,206.5C 207.473,206.179 223.307,198.512 235.5,183.5C 241.739,195.132 251.072,203.298 263.5,208C 270.831,210.556 278.165,212.889 285.5,215C 276.628,223.237 270.128,233.07 266,244.5C 257.089,270.348 254.423,296.682 258,323.5C 263.609,327.716 268.942,327.383 274,322.5C 274.333,321.5 274.667,320.5 275,319.5C 274.695,298.848 277.029,278.515 282,258.5C 286.602,242.577 295.769,230.077 309.5,221C 328.234,223.066 346.901,225.899 365.5,229.5C 373.862,228.458 377.029,223.792 375,215.5C 374.215,213.714 373.049,212.214 371.5,211C 340.147,204.796 308.814,198.463 277.5,192C 259.891,187.223 250.557,175.723 249.5,157.5C 249.983,145.37 254.65,135.203 263.5,127C 267.877,123.975 272.544,121.808 277.5,120.5 Z M 113.5,407.5 C 199.833,407.5 286.167,407.5 372.5,407.5C 372.667,419.505 372.5,431.505 372,443.5C 372.373,466.318 361.873,481.151 340.5,488C 335.209,489.215 329.876,490.215 324.5,491C 297.352,492.103 270.185,492.603 243,492.5C 215.815,492.603 188.648,492.103 161.5,491C 146.496,490.339 133.663,484.839 123,474.5C 117.609,466.328 114.609,457.328 114,447.5C 113.5,434.171 113.333,420.837 113.5,407.5 Z"/></g>
</svg>
