<?xml version="1.0" encoding="UTF-8"?>
<!DOCTYPE svg PUBLIC "-//W3C//DTD SVG 1.1//EN" "http://www.w3.org/Graphics/SVG/1.1/DTD/svg11.dtd">
<svg xmlns="http://www.w3.org/2000/svg" version="1.1" width="512px" height="512px" style="shape-rendering:geometricPrecision; text-rendering:geometricPrecision; image-rendering:optimizeQuality; fill-rule:evenodd; clip-rule:evenodd" xmlns:xlink="http://www.w3.org/1999/xlink">
<g><path style="opacity:0.961" fill="#000000" d="M 269.5,38.5 C 288.874,38.3819 300.707,47.7153 305,66.5C 305.747,84.6583 307.081,102.658 309,120.5C 311.364,107.013 314.364,93.6799 318,80.5C 326.624,66.4425 339.124,60.9425 355.5,64C 372.651,70.1535 380.484,82.3201 379,100.5C 373.356,133.216 367.523,165.883 361.5,198.5C 376.449,200.959 386.283,209.293 391,223.5C 391.667,256.833 391.667,290.167 391,323.5C 372.681,342.652 354.181,361.652 335.5,380.5C 339.264,383.692 341.764,387.692 343,392.5C 343.667,422.833 343.667,453.167 343,483.5C 342.626,484.416 342.126,485.25 341.5,486C 284.916,487.658 228.249,487.992 171.5,487C 169.667,486.5 168.5,485.333 168,483.5C 167.333,453.167 167.333,422.833 168,392.5C 168.725,390.051 169.725,387.717 171,385.5C 173.9,382.6 176.733,379.767 179.5,377C 170.472,353.777 161.305,330.611 152,307.5C 151.333,266.167 151.333,224.833 152,183.5C 158.368,164.556 171.534,156.723 191.5,160C 194.618,160.873 197.618,162.039 200.5,163.5C 210.588,145.689 225.588,139.356 245.5,144.5C 243.669,120.54 242.002,96.5401 240.5,72.5C 241.629,53.715 251.296,42.3816 269.5,38.5 Z M 272.5,55.5 C 280.218,56.7124 285.384,61.0457 288,68.5C 290.262,110.882 292.928,153.215 296,195.5C 298.955,199.277 302.788,200.443 307.5,199C 309.81,197.363 311.31,195.196 312,192.5C 318.699,157.335 326.033,122.335 334,87.5C 341.182,78.7893 349.182,77.7893 358,84.5C 360.572,87.7131 362.072,91.3797 362.5,95.5C 356.322,131.569 349.822,167.569 343,203.5C 335.312,208.183 330.312,214.85 328,223.5C 327.667,239.5 327.333,255.5 327,271.5C 305.305,278.19 294.972,292.857 296,315.5C 296.5,317.333 297.667,318.5 299.5,319C 302.964,319.817 306.298,319.483 309.5,318C 311.403,311.437 313.57,304.937 316,298.5C 318.167,296.333 320.333,294.167 322.5,292C 328.937,289.57 335.437,287.403 342,285.5C 343.039,265.88 344.039,246.214 345,226.5C 350.295,216.277 358.128,213.777 368.5,219C 372.382,222.264 374.549,226.43 375,231.5C 375.667,259.5 375.667,287.5 375,315.5C 355.167,335.333 335.333,355.167 315.5,375C 276.167,375.667 236.833,375.667 197.5,375C 187.476,350.597 177.642,326.097 168,301.5C 167.17,295.804 167.337,290.137 168.5,284.5C 188.932,292.236 204.265,286.57 214.5,267.5C 223.836,271.772 233.502,272.605 243.5,270C 253.835,265.833 260.335,258.333 263,247.5C 263.667,217.833 263.667,188.167 263,158.5C 261.323,129.988 259.49,101.488 257.5,73C 258.003,63.0895 263.003,57.2561 272.5,55.5 Z M 230.5,159.5 C 237.877,160.101 243.044,163.768 246,170.5C 247.114,182.788 247.614,195.121 247.5,207.5C 247.614,219.879 247.114,232.212 246,244.5C 240.705,254.723 232.872,257.223 222.5,252C 219.894,250.062 218.061,247.562 217,244.5C 215.886,232.212 215.386,219.879 215.5,207.5C 215.386,195.121 215.886,182.788 217,170.5C 219.616,164.372 224.116,160.706 230.5,159.5 Z M 178.5,176.5 C 190.308,174.817 197.141,179.817 199,191.5C 199.667,212.833 199.667,234.167 199,255.5C 195.813,269.344 187.646,273.51 174.5,268C 170.618,264.736 168.451,260.57 168,255.5C 167.333,234.167 167.333,212.833 168,191.5C 168.626,184.391 172.126,179.391 178.5,176.5 Z M 191.5,391.5 C 234.168,391.333 276.835,391.5 319.5,392C 324,392.5 326.5,395 327,399.5C 327.5,423.498 327.667,447.498 327.5,471.5C 279.5,471.5 231.5,471.5 183.5,471.5C 183.333,447.498 183.5,423.498 184,399.5C 184.68,394.989 187.18,392.323 191.5,391.5 Z"/></g>
</svg>
