<?xml version="1.0" encoding="UTF-8"?>
<!DOCTYPE svg PUBLIC "-//W3C//DTD SVG 1.1//EN" "http://www.w3.org/Graphics/SVG/1.1/DTD/svg11.dtd">
<svg xmlns="http://www.w3.org/2000/svg" version="1.1" width="512px" height="512px" style="shape-rendering:geometricPrecision; text-rendering:geometricPrecision; image-rendering:optimizeQuality; fill-rule:evenodd; clip-rule:evenodd" xmlns:xlink="http://www.w3.org/1999/xlink">
<g><path style="opacity:0.978" fill="#000000" d="M 265.5,-0.5 C 273.167,-0.5 280.833,-0.5 288.5,-0.5C 306.619,3.40411 320.953,13.0708 331.5,28.5C 361.933,14.2868 388.766,19.2868 412,43.5C 417.379,50.9247 421.713,58.9247 425,67.5C 455.094,57.7705 480.094,65.1039 500,89.5C 505.305,97.6038 509.138,106.27 511.5,115.5C 511.5,190.833 511.5,266.167 511.5,341.5C 501.352,411.134 465.019,461.967 402.5,494C 382.596,502.972 361.93,508.806 340.5,511.5C 314.167,511.5 287.833,511.5 261.5,511.5C 192.405,504.782 133.072,477.282 83.5,429C 60.3333,406.5 37.1667,384 14,361.5C 6.96736,352.106 2.13402,341.773 -0.5,330.5C -0.5,323.167 -0.5,315.833 -0.5,308.5C 9.78204,270.334 34.782,252.834 74.5,256C 84.3326,257.72 93.3326,261.386 101.5,267C 109.711,274.213 118.211,281.046 127,287.5C 127.333,223.5 127.667,159.5 128,95.5C 135.875,61.6303 157.208,43.6303 192,41.5C 200.021,41.6688 207.688,43.3355 215,46.5C 223.062,21.267 239.895,5.60034 265.5,-0.5 Z M 273.5,42.5 C 285.179,42.2517 293.013,47.5851 297,58.5C 297.5,117.166 297.667,175.832 297.5,234.5C 312.167,234.5 326.833,234.5 341.5,234.5C 341.333,183.166 341.5,131.832 342,80.5C 348.236,64.7506 359.069,60.5839 374.5,68C 379.293,72.0846 382.126,77.2512 383,83.5C 383.5,133.832 383.667,184.166 383.5,234.5C 397.833,234.5 412.167,234.5 426.5,234.5C 426.333,198.498 426.5,162.498 427,126.5C 432.026,107.902 443.193,102.735 460.5,111C 464.145,114.453 466.645,118.62 468,123.5C 468.667,192.833 468.667,262.167 468,331.5C 460.747,392.541 428.914,435.041 372.5,459C 349.659,466.868 326.159,470.035 302,468.5C 235.046,471.184 176.213,451.018 125.5,408C 101.47,384.302 77.1366,360.969 52.5,338C 40.6376,327.525 39.6376,316.192 49.5,304C 56.575,298.317 64.2416,297.317 72.5,301C 105.197,326.018 137.53,351.518 169.5,377.5C 170.333,286.168 170.833,194.835 171,103.5C 175.685,87.5743 185.851,82.4077 201.5,88C 207.136,92.0977 210.636,97.5977 212,104.5C 212.5,147.832 212.667,191.165 212.5,234.5C 227.167,234.5 241.833,234.5 256.5,234.5C 256.333,175.499 256.5,116.499 257,57.5C 260.206,49.7856 265.706,44.7856 273.5,42.5 Z"/></g>
</svg>
