<?xml version="1.0" encoding="UTF-8"?>
<!DOCTYPE svg PUBLIC "-//W3C//DTD SVG 1.1//EN" "http://www.w3.org/Graphics/SVG/1.1/DTD/svg11.dtd">
<svg xmlns="http://www.w3.org/2000/svg" version="1.1" width="512px" height="512px" style="shape-rendering:geometricPrecision; text-rendering:geometricPrecision; image-rendering:optimizeQuality; fill-rule:evenodd; clip-rule:evenodd" xmlns:xlink="http://www.w3.org/1999/xlink">
<g><path style="opacity:0.98" fill="#030302" d="M 195.5,-0.5 C 235.5,-0.5 275.5,-0.5 315.5,-0.5C 321.064,1.89468 325.231,5.89468 328,11.5C 329.204,19.7723 329.871,28.1056 330,36.5C 331,38.5 332,40.5 333,42.5C 340.667,50.1667 348.333,57.8333 356,65.5C 359.225,70.1191 362.059,74.9525 364.5,80C 419.698,115.504 451.864,166.004 461,231.5C 464.692,235.547 467.359,240.214 469,245.5C 470.018,256.476 470.851,267.476 471.5,278.5C 490.571,273.037 503.905,279.371 511.5,297.5C 511.5,340.833 511.5,384.167 511.5,427.5C 509.523,433.792 506.69,439.792 503,445.5C 493.599,454.232 484.932,463.565 477,473.5C 476.667,480.5 476.333,487.5 476,494.5C 474.589,502.732 470.089,508.399 462.5,511.5C 422.167,511.5 381.833,511.5 341.5,511.5C 336.257,508.939 332.423,504.939 330,499.5C 328.76,491.243 328.093,482.909 328,474.5C 327.529,472.754 326.862,471.087 326,469.5C 321.631,464.135 316.965,459.135 312,454.5C 293.516,459.581 274.682,462.248 255.5,462.5C 237.992,461.81 220.659,459.977 203.5,457C 197.112,462.042 192.279,468.209 189,475.5C 188.902,483.577 188.235,491.577 187,499.5C 184.309,504.689 180.476,508.689 175.5,511.5C 135.167,511.5 94.8333,511.5 54.5,511.5C 46.9111,508.399 42.4111,502.732 41,494.5C 40.9021,486.423 40.2355,478.423 39,470.5C 28.707,457.871 18.0403,445.538 7,433.5C 3.80925,428.397 1.30925,423.064 -0.5,417.5C -0.5,395.833 -0.5,374.167 -0.5,352.5C 3.11576,341.551 10.4491,334.217 21.5,330.5C 21.8333,329.333 22.1667,328.167 22.5,327C 21.2458,316.524 20.7458,306.024 21,295.5C 22.3116,292.762 24.4783,291.428 27.5,291.5C 31.5616,291.724 34.395,293.724 36,297.5C 36.2947,305.859 36.7947,314.192 37.5,322.5C 37.5,324.833 37.5,327.167 37.5,329.5C 48.5,329.5 59.5,329.5 70.5,329.5C 68.566,296.489 66.3994,263.489 64,230.5C 59.5188,221.073 52.3522,217.74 42.5,220.5C 37.1779,222.324 33.6779,225.991 32,231.5C 32.6391,243.148 32.9724,254.814 33,266.5C 31.8415,269.493 29.6748,271.16 26.5,271.5C 20.9532,271.788 18.1199,269.121 18,263.5C 17.3893,255.173 16.8893,246.84 16.5,238.5C 17.7186,213.613 30.7186,202.28 55.5,204.5C 61.3099,180.385 71.3099,158.218 85.5,138C 88.4543,136.281 91.4543,136.115 94.5,137.5C 97.3549,140.592 98.1882,144.259 97,148.5C 85.3953,165.379 76.7286,183.712 71,203.5C 68.1515,209.099 69.1515,213.766 74,217.5C 75.6667,220.833 77.3333,224.167 79,227.5C 87.7952,206.522 102.962,199.855 124.5,207.5C 129.495,193.012 136.828,179.845 146.5,168C 143.305,164.086 141.471,159.586 141,154.5C 140.833,137.49 140.333,120.49 139.5,103.5C 131.603,109.295 124.269,115.795 117.5,123C 113.719,125.035 110.052,124.868 106.5,122.5C 104.158,119.283 103.991,115.95 106,112.5C 118.484,100.175 131.984,89.1752 146.5,79.5C 156.48,67.6854 166.647,56.0188 177,44.5C 178.586,42.3295 179.92,39.9962 181,37.5C 181.123,28.7727 181.79,20.1061 183,11.5C 185.769,5.89468 189.936,1.89468 195.5,-0.5 Z M 157.5,178.5 C 159.138,179.159 160.805,179.826 162.5,180.5C 161.935,197.223 168.935,209.389 183.5,217C 197.511,221.498 209.844,218.664 220.5,208.5C 234.226,219.449 248.56,220.282 263.5,211C 267.422,207.749 270.588,203.916 273,199.5C 285.891,207.582 298.724,207.415 311.5,199C 314.807,195.494 317.974,191.994 321,188.5C 334.172,195.69 346.838,195.023 359,186.5C 363.818,193.968 367.985,201.802 371.5,210C 367.377,212.746 364.043,216.246 361.5,220.5C 346.365,211.83 332.198,213.163 319,224.5C 316.162,228.172 313.829,232.172 312,236.5C 310.56,256.788 310.06,277.121 310.5,297.5C 299.325,300.507 291.825,307.507 288,318.5C 286.564,337.787 286.064,357.12 286.5,376.5C 267.854,380.739 249.188,381.072 230.5,377.5C 230.898,364.781 230.398,352.114 229,339.5C 221.321,321.41 207.821,314.577 188.5,319C 185.302,319.848 182.469,321.348 180,323.5C 171.261,308.716 158.427,303.05 141.5,306.5C 139.6,302.023 138.267,297.356 137.5,292.5C 138.916,273.841 140.25,255.174 141.5,236.5C 141.392,230.067 139.725,224.067 136.5,218.5C 141.429,203.971 148.429,190.638 157.5,178.5 Z"/></g>
<g><path style="opacity:1" fill="#fddbca" d="M 297.5,14.5 C 298.302,22.4218 298.802,30.4218 299,38.5C 299.862,40.087 300.529,41.7536 301,43.5C 308.969,52.4701 317.303,61.1368 326,69.5C 331.443,76.9359 334.276,85.2692 334.5,94.5C 325.333,96.3419 318,101.009 312.5,108.5C 294.663,96.3178 278.663,98.3178 264.5,114.5C 260.728,111.377 256.728,108.711 252.5,106.5C 260.08,94.1832 263.246,80.8499 262,66.5C 256.513,60.8673 251.846,61.5339 248,68.5C 248.161,88.1869 239.995,103.187 223.5,113.5C 212.008,110.688 200.341,109.855 188.5,111C 185.432,112.63 183.432,115.13 182.5,118.5C 174.069,122.088 173.403,126.921 180.5,133C 191.905,133.066 203.238,133.733 214.5,135C 226.505,143.05 227.505,152.383 217.5,163C 215.043,164.562 212.376,165.562 209.5,166C 195.5,166.667 181.5,166.667 167.5,166C 161.233,164.066 157.399,159.9 156,153.5C 155.333,134.5 155.333,115.5 156,96.5C 157.556,91.7202 159.889,87.3869 163,83.5C 172.667,72.5 182.333,61.5 192,50.5C 194.584,46.1668 196.251,41.5001 197,36.5C 197.333,29.8333 197.667,23.1667 198,16.5C 198.5,16 199,15.5 199.5,15C 232.165,14.5 264.832,14.3334 297.5,14.5 Z"/></g>
<g><path style="opacity:1" fill="#fccab1" d="M 297.5,14.5 C 302.179,14.3342 306.845,14.5008 311.5,15C 312,15.5 312.5,16 313,16.5C 311.569,29.5004 314.236,41.5004 321,52.5C 329.697,60.8632 338.031,69.5299 346,78.5C 348.996,83.7704 350.162,89.4371 349.5,95.5C 344.537,94.746 339.537,94.4126 334.5,94.5C 334.276,85.2692 331.443,76.9359 326,69.5C 317.303,61.1368 308.969,52.4701 301,43.5C 300.529,41.7536 299.862,40.087 299,38.5C 298.802,30.4218 298.302,22.4218 297.5,14.5 Z"/></g>
<g><path style="opacity:1" fill="#58af65" d="M 428.5,224.5 C 421.207,179.577 401.04,141.577 368,110.5C 367.601,110.728 367.435,111.062 367.5,111.5C 364.577,107.757 363.743,103.424 365,98.5C 407.878,129.572 434.044,171.238 443.5,223.5C 438.405,223.221 433.405,223.555 428.5,224.5 Z"/></g>
<g><path style="opacity:0.999" fill="#8ad669" d="M 94.5,137.5 C 98.4697,132.524 102.47,127.524 106.5,122.5C 110.052,124.868 113.719,125.035 117.5,123C 124.269,115.795 131.603,109.295 139.5,103.5C 140.333,120.49 140.833,137.49 141,154.5C 141.471,159.586 143.305,164.086 146.5,168C 136.828,179.845 129.495,193.012 124.5,207.5C 102.962,199.855 87.7952,206.522 79,227.5C 77.3333,224.167 75.6667,220.833 74,217.5C 69.1515,213.766 68.1515,209.099 71,203.5C 76.7286,183.712 85.3953,165.379 97,148.5C 98.1882,144.259 97.3549,140.592 94.5,137.5 Z"/></g>
<g><path style="opacity:1" fill="#fbc9b0" d="M 334.5,110.5 C 343.968,107.982 350.802,111.315 355,120.5C 355.667,135.5 355.667,150.5 355,165.5C 350.966,176.601 343.466,180.268 332.5,176.5C 333.822,176.67 334.989,176.337 336,175.5C 337.725,172.326 339.058,168.993 340,165.5C 340.667,150.833 340.667,136.167 340,121.5C 339.19,117.213 337.357,113.546 334.5,110.5 Z"/></g>
<g><path style="opacity:1" fill="#fad8c7" d="M 334.5,110.5 C 337.357,113.546 339.19,117.213 340,121.5C 340.667,136.167 340.667,150.833 340,165.5C 339.058,168.993 337.725,172.326 336,175.5C 334.989,176.337 333.822,176.67 332.5,176.5C 327.763,174.258 324.596,170.592 323,165.5C 322.333,150.833 322.333,136.167 323,121.5C 324.783,115.547 328.616,111.881 334.5,110.5 Z"/></g>
<g><path style="opacity:1" fill="#f8c7af" d="M 223.5,113.5 C 221.586,116.003 219.252,118.003 216.5,119.5C 205.199,118.543 193.865,118.209 182.5,118.5C 183.432,115.13 185.432,112.63 188.5,111C 200.341,109.855 212.008,110.688 223.5,113.5 Z"/></g>
<g><path style="opacity:1" fill="#8ad76a" d="M 428.5,224.5 C 425.658,225.172 423.158,226.506 421,228.5C 415.309,211.717 403.476,203.384 385.5,203.5C 381.071,192.426 375.404,182.092 368.5,172.5C 369.154,170.885 369.654,169.218 370,167.5C 370.667,151.167 370.667,134.833 370,118.5C 369.153,116.146 368.32,113.812 367.5,111.5C 367.435,111.062 367.601,110.728 368,110.5C 401.04,141.577 421.207,179.577 428.5,224.5 Z"/></g>
<g><path style="opacity:1" fill="#fdcab2" d="M 286.5,116.5 C 295.992,113.994 302.825,117.327 307,126.5C 307.167,135.167 307.333,143.833 307.5,152.5C 307.628,162.237 307.128,171.904 306,181.5C 300.948,189.203 294.115,191.537 285.5,188.5C 286.496,188.586 287.329,188.252 288,187.5C 289.725,184.326 291.058,180.993 292,177.5C 292.667,160.5 292.667,143.5 292,126.5C 290.914,122.654 289.081,119.32 286.5,116.5 Z"/></g>
<g><path style="opacity:1" fill="#f8d7c6" d="M 286.5,116.5 C 289.081,119.32 290.914,122.654 292,126.5C 292.667,143.5 292.667,160.5 292,177.5C 291.058,180.993 289.725,184.326 288,187.5C 287.329,188.252 286.496,188.586 285.5,188.5C 279.745,186.572 276.245,182.572 275,176.5C 274.333,160.5 274.333,144.5 275,128.5C 276.369,122.066 280.202,118.066 286.5,116.5 Z"/></g>
<g><path style="opacity:1" fill="#fccab1" d="M 237.5,200.5 C 239.624,199.969 241.124,198.635 242,196.5C 242.667,194.5 243.333,192.5 244,190.5C 244.667,181.167 244.667,171.833 244,162.5C 240.807,171.182 235.307,177.849 227.5,182.5C 226.389,177.151 227.889,172.818 232,169.5C 241.067,155.285 240.567,141.452 230.5,128C 236.744,121.007 244.077,119.673 252.5,124C 254.667,125.5 256.5,127.333 258,129.5C 259.643,149.744 259.976,170.077 259,190.5C 254.882,200.476 247.716,203.81 237.5,200.5 Z"/></g>
<g><path style="opacity:1" fill="#fddbca" d="M 237.5,200.5 C 229.602,197.221 226.269,191.221 227.5,182.5C 235.307,177.849 240.807,171.182 244,162.5C 244.667,171.833 244.667,181.167 244,190.5C 243.333,192.5 242.667,194.5 242,196.5C 241.124,198.635 239.624,199.969 237.5,200.5 Z"/></g>
<g><path style="opacity:1" fill="#614e44" d="M 179.5,181.5 C 190.321,180.505 201.321,180.172 212.5,180.5C 212.81,183.713 212.477,186.713 211.5,189.5C 211.5,186.833 211.5,184.167 211.5,181.5C 200.833,181.5 190.167,181.5 179.5,181.5 Z"/></g>
<g><path style="opacity:1" fill="#fccab1" d="M 179.5,181.5 C 190.167,181.5 200.833,181.5 211.5,181.5C 211.5,184.167 211.5,186.833 211.5,189.5C 210.152,198.939 204.652,203.606 195,203.5C 193.293,203.492 191.793,203.158 190.5,202.5C 194.223,198.69 196.223,194.024 196.5,188.5C 190.833,188.5 185.167,188.5 179.5,188.5C 179.5,186.167 179.5,183.833 179.5,181.5 Z"/></g>
<g><path style="opacity:1" fill="#fddbca" d="M 179.5,188.5 C 185.167,188.5 190.833,188.5 196.5,188.5C 196.223,194.024 194.223,198.69 190.5,202.5C 183.872,200.201 180.205,195.534 179.5,188.5 Z"/></g>
<g><path style="opacity:1" fill="#fcc9b1" d="M 42.5,220.5 C 52.3522,217.74 59.5188,221.073 64,230.5C 66.3994,263.489 68.566,296.489 70.5,329.5C 59.5,329.5 48.5,329.5 37.5,329.5C 37.5,327.167 37.5,324.833 37.5,322.5C 43.1667,322.5 48.8333,322.5 54.5,322.5C 53.1041,292.145 51.2707,261.811 49,231.5C 48.1646,226.878 45.9979,223.212 42.5,220.5 Z"/></g>
<g><path style="opacity:1" fill="#fccab1" d="M 103.5,220.5 C 112.89,217.914 120.057,220.914 125,229.5C 123.915,263.529 122.082,297.529 119.5,331.5C 112.945,329.448 108.445,325.114 106,318.5C 106.591,291.466 108.091,264.466 110.5,237.5C 110.73,231.688 109.23,226.355 106,221.5C 105.329,220.748 104.496,220.414 103.5,220.5 Z"/></g>
<g><path style="opacity:1" fill="#fddbca" d="M 477.5,293.5 C 478.927,296.024 480.094,298.69 481,301.5C 481.667,341.5 481.667,381.5 481,421.5C 479.993,427.522 477.993,433.189 475,438.5C 466.697,447.804 458.031,456.804 449,465.5C 448,467.5 447,469.5 446,471.5C 445.774,479.88 445.274,488.214 444.5,496.5C 411.832,496.667 379.165,496.5 346.5,496C 345.667,495.167 344.833,494.333 344,493.5C 343.667,485.5 343.333,477.5 343,469.5C 342.275,467.051 341.275,464.717 340,462.5C 330.041,450.205 319.707,438.205 309,426.5C 306.565,423.066 304.565,419.4 303,415.5C 302.333,384.5 302.333,353.5 303,322.5C 308.362,311.569 316.528,308.735 327.5,314C 331.116,316.742 333.616,320.242 335,324.5C 335.333,344.5 335.667,364.5 336,384.5C 337.167,385.667 338.333,386.833 339.5,388C 366.055,388.91 383.889,401.743 393,426.5C 394.106,431.769 394.773,437.103 395,442.5C 399.239,450.086 403.905,450.42 409,443.5C 409.738,414.472 397.238,393.305 371.5,380C 366.981,377.993 362.314,376.493 357.5,375.5C 357.951,355.779 357.451,336.112 356,316.5C 350.962,302.29 341.129,293.624 326.5,290.5C 326.028,273.072 326.528,255.739 328,238.5C 337.587,227.893 347.254,227.893 357,238.5C 358.32,273.082 358.987,307.748 359,342.5C 361.435,347.224 365.269,348.724 370.5,347C 371.701,346.097 372.535,344.931 373,343.5C 373.333,306.5 373.667,269.5 374,232.5C 378.599,219.789 387.099,216.289 399.5,222C 402.433,224.264 404.6,227.098 406,230.5C 406.333,272.167 406.667,313.833 407,355.5C 409.072,360.143 412.572,361.643 417.5,360C 419.333,359.5 420.5,358.333 421,356.5C 421.333,321.167 421.667,285.833 422,250.5C 426.704,239.237 434.87,235.737 446.5,240C 449.762,242.592 452.262,245.759 454,249.5C 454.333,287.5 454.667,325.5 455,363.5C 457.072,368.143 460.572,369.643 465.5,368C 467.049,366.786 468.215,365.286 469,363.5C 469.333,342.833 469.667,322.167 470,301.5C 471.347,297.656 473.847,294.989 477.5,293.5 Z"/></g>
<g><path style="opacity:0.996" fill="#fddbca" d="M 42.5,220.5 C 45.9979,223.212 48.1646,226.878 49,231.5C 51.2707,261.811 53.1041,292.145 54.5,322.5C 48.8333,322.5 43.1667,322.5 37.5,322.5C 36.7947,314.192 36.2947,305.859 36,297.5C 34.395,293.724 31.5616,291.724 27.5,291.5C 26.7875,284.857 26.4542,278.191 26.5,271.5C 29.6748,271.16 31.8415,269.493 33,266.5C 32.9724,254.814 32.6391,243.148 32,231.5C 33.6779,225.991 37.1779,222.324 42.5,220.5 Z"/></g>
<g><path style="opacity:1" fill="#fddbca" d="M 103.5,220.5 C 104.496,220.414 105.329,220.748 106,221.5C 109.23,226.355 110.73,231.688 110.5,237.5C 108.091,264.466 106.591,291.466 106,318.5C 108.445,325.114 112.945,329.448 119.5,331.5C 119.333,349.503 119.5,367.503 120,385.5C 126.354,405.501 139.854,413.335 160.5,409C 164.537,407.463 168.204,405.296 171.5,402.5C 177.206,409.688 184.539,414.355 193.5,416.5C 193.819,424.047 191.985,431.047 188,437.5C 179.697,446.804 171.031,455.804 162,464.5C 160.667,467.167 159.333,469.833 158,472.5C 157.771,480.547 157.271,488.547 156.5,496.5C 123.832,496.667 91.165,496.5 58.5,496C 58,495.5 57.5,495 57,494.5C 56.6667,486.833 56.3333,479.167 56,471.5C 55.1965,468.756 54.1965,466.089 53,463.5C 43.3744,451.539 33.3744,439.872 23,428.5C 19.059,424.214 16.3923,419.214 15,413.5C 14.3333,394.5 14.3333,375.5 15,356.5C 17.384,350.725 21.5507,346.892 27.5,345C 41.5,344.333 55.5,344.333 69.5,345C 83.011,349.866 86.511,358.7 80,371.5C 77.3304,374.25 74.1637,376.083 70.5,377C 60.1667,377.333 49.8333,377.667 39.5,378C 34.1881,382.761 34.1881,387.428 39.5,392C 67.2647,384.691 88.0981,393.191 102,417.5C 105.783,425.747 107.783,434.414 108,443.5C 112.997,450.266 117.663,449.933 122,442.5C 122.119,420.076 113.619,401.743 96.5,387.5C 108.205,370.578 108.372,353.578 97,336.5C 94.2532,333.246 91.0865,330.58 87.5,328.5C 88.8989,296.479 90.7323,264.479 93,232.5C 94.4379,226.581 97.9379,222.581 103.5,220.5 Z"/></g>
<g><path style="opacity:1" fill="#f4c3ab" d="M 326.5,290.5 C 341.129,293.624 350.962,302.29 356,316.5C 357.451,336.112 357.951,355.779 357.5,375.5C 354.936,375.021 352.436,374.355 350,373.5C 349.962,354.435 349.296,335.435 348,316.5C 343.521,307.354 336.521,301.02 327,297.5C 326.503,295.19 326.337,292.857 326.5,290.5 Z"/></g>
<g><path style="opacity:1" fill="#fdcbb2" d="M 444.5,496.5 C 445.274,488.214 445.774,479.88 446,471.5C 447,469.5 448,467.5 449,465.5C 458.031,456.804 466.697,447.804 475,438.5C 477.993,433.189 479.993,427.522 481,421.5C 481.667,381.5 481.667,341.5 481,301.5C 480.094,298.69 478.927,296.024 477.5,293.5C 485.956,290.13 492.123,292.797 496,301.5C 496.667,341.833 496.667,382.167 496,422.5C 495.09,427.651 493.09,432.318 490,436.5C 481.303,444.863 472.969,453.53 465,462.5C 463.275,465.674 461.942,469.007 461,472.5C 460.667,479.833 460.333,487.167 460,494.5C 459.5,495 459,495.5 458.5,496C 453.845,496.499 449.179,496.666 444.5,496.5 Z"/></g>
<g><path style="opacity:1" fill="#f7c6ad" d="M 145.5,394.5 C 148.362,391.443 150.195,387.776 151,383.5C 151.667,366.167 151.667,348.833 151,331.5C 150.275,329.051 149.275,326.717 148,324.5C 147.184,323.177 146.017,322.511 144.5,322.5C 155.629,319.152 163.129,323.152 167,334.5C 167.667,350.167 167.667,365.833 167,381.5C 163.808,392.671 156.642,397.004 145.5,394.5 Z"/></g>
<g><path style="opacity:1" fill="#fedccb" d="M 144.5,322.5 C 146.017,322.511 147.184,323.177 148,324.5C 149.275,326.717 150.275,329.051 151,331.5C 151.667,348.833 151.667,366.167 151,383.5C 150.195,387.776 148.362,391.443 145.5,394.5C 140.575,392.743 137.075,389.41 135,384.5C 134.333,366.833 134.333,349.167 135,331.5C 136.744,326.921 139.91,323.921 144.5,322.5 Z"/></g>
<g><path style="opacity:1" fill="#fac9b0" d="M 87.5,328.5 C 91.0865,330.58 94.2532,333.246 97,336.5C 108.372,353.578 108.205,370.578 96.5,387.5C 94.05,386.223 91.7167,384.723 89.5,383C 102.176,367.097 101.342,351.93 87,337.5C 86.2642,334.408 86.4309,331.408 87.5,328.5 Z"/></g>
<g><path style="opacity:1" fill="#fccab1" d="M 193.5,400.5 C 196.357,397.454 198.19,393.787 199,389.5C 199.667,374.833 199.667,360.167 199,345.5C 198.226,341.951 196.893,338.618 195,335.5C 194.329,334.748 193.496,334.414 192.5,334.5C 202.049,331.177 209.215,334.177 214,343.5C 214.667,359.167 214.667,374.833 214,390.5C 209.825,399.673 202.992,403.006 193.5,400.5 Z"/></g>
<g><path style="opacity:1" fill="#f8d7c6" d="M 192.5,334.5 C 193.496,334.414 194.329,334.748 195,335.5C 196.893,338.618 198.226,341.951 199,345.5C 199.667,360.167 199.667,374.833 199,389.5C 198.19,393.787 196.357,397.454 193.5,400.5C 187.374,398.282 183.541,393.949 182,387.5C 181.833,380.667 181.667,373.833 181.5,367C 181.383,359.093 181.883,351.26 183,343.5C 184.744,338.921 187.91,335.921 192.5,334.5 Z"/></g>
<g><path style="opacity:1" fill="#8ad669" d="M 285.5,392.5 C 286.167,398.833 286.833,405.167 287.5,411.5C 288.691,422.882 293.358,432.549 301.5,440.5C 286.346,445.029 270.846,447.029 255,446.5C 241.93,447.203 229.097,445.87 216.5,442.5C 218.615,439 220.448,435.333 222,431.5C 223.15,422.209 223.816,412.876 224,403.5C 225.781,400.667 227.281,397.667 228.5,394.5C 229.5,394.167 230.5,393.833 231.5,393.5C 249.536,396.152 267.536,395.819 285.5,392.5 Z"/></g>
<g><path style="opacity:1" fill="#548340" d="M 285.5,392.5 C 285.56,391.957 285.893,391.624 286.5,391.5C 287.497,398.134 287.83,404.8 287.5,411.5C 286.833,405.167 286.167,398.833 285.5,392.5 Z"/></g>
<g><path style="opacity:1" fill="#fbc9b0" d="M 156.5,496.5 C 157.271,488.547 157.771,480.547 158,472.5C 159.333,469.833 160.667,467.167 162,464.5C 171.031,455.804 179.697,446.804 188,437.5C 191.985,431.047 193.819,424.047 193.5,416.5C 198.537,416.587 203.537,416.254 208.5,415.5C 209.043,422.326 207.543,428.659 204,434.5C 196.333,442.167 188.667,449.833 181,457.5C 178.497,460.502 176.497,463.835 175,467.5C 173.756,476.091 173.089,484.758 173,493.5C 172.167,494.333 171.333,495.167 170.5,496C 165.845,496.499 161.179,496.666 156.5,496.5 Z"/></g>
</svg>
